<?xml version="1.0" encoding="utf-8"?>
<!-- Generator: Adobe Illustrator 23.0.3, SVG Export Plug-In . SVG Version: 6.00 Build 0)  -->
<svg version="1.1" id="Layer_1" xmlns="http://www.w3.org/2000/svg" xmlns:xlink="http://www.w3.org/1999/xlink" x="0px" y="0px"
	 viewBox="0 0 100 100" style="enable-background:new 0 0 100 100;" xml:space="preserve">
<style type="text/css">
	.st0{fill:#FFFFFF;}
</style>
<g>
	<path class="st0" d="M50.2,2.1C23.5,2.1,1.8,23.8,1.8,50.5s21.7,48.4,48.4,48.4s48.4-21.7,48.4-48.4S76.9,2.1,50.2,2.1z M50.2,95.6
		c-25,0-45.1-20.3-45.1-45.1S25.3,5.4,50.2,5.4s45.1,20.3,45.1,45.1C95.3,75.5,75.2,95.6,50.2,95.6z"/>
	<path class="st0" d="M50.2,34.4c-14,0-25,14.5-25.4,15.2c-0.5,0.6-0.5,1.4,0,1.9c0.5,0.7,11.5,15.2,25.4,15.2s25-14.5,25.4-15.2
		c0.5-0.6,0.5-1.4,0-1.9C75.2,48.9,64.2,34.4,50.2,34.4z M50.2,63.4c-10.5,0-19.5-9.8-22.2-12.9c2.6-3.2,11.7-12.9,22.2-12.9
		s19.5,9.8,22.2,12.9C69.7,53.7,60.7,63.4,50.2,63.4z"/>
	<path class="st0" d="M50.2,42.4c-4.5,0-8.1,3.6-8.1,8.1s3.6,8.1,8.1,8.1s8.1-3.6,8.1-8.1S54.7,42.4,50.2,42.4z M50.2,55.3
		c-2.7,0-4.8-2.1-4.8-4.8s2.1-4.8,4.8-4.8s4.8,2.1,4.8,4.8S52.9,55.3,50.2,55.3z"/>
</g>
</svg>
